<svg width="780" height="677" viewBox="0 0 780 677" fill="none" xmlns="http://www.w3.org/2000/svg">
<g clip-path="url(#clip0_130_21)">
<path d="M390.003 666.265C378.354 666.447 366.861 663.574 356.669 657.932L346.669 652.265C268.778 608.197 203.978 544.247 158.885 466.945C113.792 389.643 90.0223 301.758 90.0027 212.265V207.598C89.897 195.795 92.9273 184.174 98.7838 173.926C104.64 163.677 113.113 155.167 123.336 149.265L356.669 17.9316C366.804 12.0804 378.3 9 390.003 9C401.705 9 413.201 12.0804 423.336 17.9316L656.669 149.265C666.892 155.167 675.365 163.677 681.222 173.926C687.078 184.174 690.108 195.795 690.003 207.598V212.265C689.916 301.824 666.046 389.753 620.832 467.061C575.619 544.369 510.684 608.282 432.669 652.265L422.669 657.932C412.674 663.462 401.426 666.332 390.003 666.265Z" fill="#8062D6" fill-opacity="0.44"/>
<g clip-path="url(#clip1_130_21)">
<path d="M390 666.333C378.352 666.516 366.859 663.642 356.667 658L346.667 652.333C268.776 608.265 203.975 544.315 158.882 467.013C113.79 389.711 90.0196 301.826 90 212.333V207.667C89.8943 195.863 92.9246 184.243 98.7811 173.994C104.638 163.745 113.11 155.235 123.333 149.333L356.667 18C366.801 12.1488 378.298 9.06836 390 9.06836C401.702 9.06836 413.199 12.1488 423.333 18L656.667 149.333C666.89 155.235 675.362 163.745 681.219 173.994C687.075 184.243 690.106 195.863 690 207.667V212.333C689.914 301.892 666.043 389.822 620.83 467.13C575.616 544.438 510.682 608.351 432.667 652.333L422.667 658C412.672 663.531 401.423 666.4 390 666.333ZM390 76.3333L156.667 207.667V212.333C156.723 290.037 177.433 366.328 216.677 433.394C255.92 500.459 312.286 555.887 380 594L390 599.667L400 594C467.714 555.887 524.08 500.459 563.323 433.394C602.567 366.328 623.277 290.037 623.333 212.333V207.667L390 76.3333Z" fill="#8062D6"/>
</g>
</g>
<defs>
<clipPath id="clip0_130_21">
<rect width="800" height="800" fill="white" transform="translate(-10 -62)"/>
</clipPath>
<clipPath id="clip1_130_21">
<rect width="800" height="800" fill="white" transform="translate(-10 -62)"/>
</clipPath>
</defs>
</svg>
